<mxfile host="app.diagrams.net" modified="2023-06-24T08:11:21.546Z" agent="Mozilla/5.0 (Macintosh; Intel Mac OS X 10_15_7) AppleWebKit/537.36 (KHTML, like Gecko) Chrome/114.0.0.0 Safari/537.36" etag="0U9AnRKFaFY-Wmyn7QHg" version="21.5.0" type="device">
  <diagram name="第 1 页" id="f82RttyJD7gP6xK9eply">
    <mxGraphModel dx="950" dy="538" grid="1" gridSize="10" guides="1" tooltips="1" connect="1" arrows="1" fold="1" page="1" pageScale="1" pageWidth="827" pageHeight="1169" math="0" shadow="0">
      <root>
        <mxCell id="0" />
        <mxCell id="1" parent="0" />
        <mxCell id="47XsXpt79vy4vAY9p55C-1" value="&lt;font style=&quot;font-size: 30px;&quot;&gt;q&lt;/font&gt;&lt;sub style=&quot;&quot;&gt;&lt;font style=&quot;font-size: 19px;&quot;&gt;0&lt;/font&gt;&lt;/sub&gt;" style="ellipse;whiteSpace=wrap;html=1;aspect=fixed;" vertex="1" parent="1">
          <mxGeometry x="360" y="240" width="80" height="80" as="geometry" />
        </mxCell>
        <mxCell id="47XsXpt79vy4vAY9p55C-2" value="" style="endArrow=classic;html=1;rounded=0;entryX=0;entryY=0.5;entryDx=0;entryDy=0;" edge="1" parent="1" target="47XsXpt79vy4vAY9p55C-1">
          <mxGeometry width="50" height="50" relative="1" as="geometry">
            <mxPoint x="240" y="280" as="sourcePoint" />
            <mxPoint x="440" y="260" as="targetPoint" />
          </mxGeometry>
        </mxCell>
        <mxCell id="47XsXpt79vy4vAY9p55C-3" value="&lt;font style=&quot;font-size: 20px;&quot;&gt;start&lt;/font&gt;" style="text;html=1;align=center;verticalAlign=middle;resizable=0;points=[];autosize=1;strokeColor=none;fillColor=none;" vertex="1" parent="1">
          <mxGeometry x="270" y="240" width="60" height="40" as="geometry" />
        </mxCell>
        <mxCell id="47XsXpt79vy4vAY9p55C-6" style="edgeStyle=orthogonalEdgeStyle;rounded=0;orthogonalLoop=1;jettySize=auto;html=1;exitX=1;exitY=0;exitDx=0;exitDy=0;entryX=1;entryY=1;entryDx=0;entryDy=0;curved=1;" edge="1" parent="1" source="47XsXpt79vy4vAY9p55C-1" target="47XsXpt79vy4vAY9p55C-1">
          <mxGeometry relative="1" as="geometry">
            <Array as="points">
              <mxPoint x="428" y="230" />
              <mxPoint x="480" y="230" />
              <mxPoint x="480" y="330" />
              <mxPoint x="428" y="330" />
            </Array>
          </mxGeometry>
        </mxCell>
        <mxCell id="47XsXpt79vy4vAY9p55C-7" value="&lt;font style=&quot;font-size: 20px;&quot;&gt;a, Z&lt;/font&gt;&lt;font style=&quot;font-size: 11px;&quot;&gt;0&lt;/font&gt;&lt;font style=&quot;font-size: 20px;&quot;&gt;/AXBB&lt;br&gt;a, X/XB&lt;br&gt;b, X/B&lt;br&gt;b, B/ε&lt;br&gt;a, A/ε&lt;br&gt;&lt;/font&gt;" style="text;html=1;align=left;verticalAlign=middle;resizable=0;points=[];autosize=1;strokeColor=none;fillColor=none;" vertex="1" parent="1">
          <mxGeometry x="500" y="210" width="120" height="130" as="geometry" />
        </mxCell>
      </root>
    </mxGraphModel>
  </diagram>
</mxfile>
